<svg width="90" height="90" viewBox="0 0 90 90" fill="none" xmlns="http://www.w3.org/2000/svg">
<path d="M13 75.0633L22.0644 70.4817L26.6423 69.9319H35.8898L44.9542 65.9048H49.4406H63.1745L67.6609 61.4149H77" stroke="#111111" stroke-width="1.5" stroke-linecap="round" stroke-linejoin="round"/>
<path d="M44.5367 22.637C41.6834 21.8724 39.9901 18.9395 40.7546 16.0862C41.5192 13.2328 44.4521 11.5395 47.3054 12.3041C50.1588 13.0686 51.8521 16.0015 51.0875 18.8549C50.323 21.7082 47.3901 23.4015 44.5367 22.637Z" stroke="#111111" stroke-width="1.5" stroke-miterlimit="10"/>
<path d="M48.4121 27.3861C48.5359 27.4156 53.8102 31.5361 54.7342 32.2584C54.8248 32.3293 54.934 32.3659 55.0491 32.3659H62.3835C62.3887 32.3659 62.3934 32.3659 62.3986 32.3662C62.5376 32.3733 64.6055 32.5213 64.6055 35.073C64.6055 37.6247 62.5396 37.7728 62.4006 37.7799C62.3955 37.7801 62.3907 37.7802 62.3855 37.7802H54.2114C54.1324 37.7802 53.6889 37.8085 53.5491 37.7135L46.7706 33.1175C46.4586 32.906 46.0326 33.0903 45.9731 33.4625L44.7064 41.3934C44.664 41.6591 44.8305 41.9137 45.0913 41.9802C46.499 42.3389 50.5607 43.3915 52.8238 43.9782C53.0509 44.0371 53.2075 44.2415 53.2075 44.4762V59.846C53.2075 59.846 53.2075 59.846 53.2075 59.846C53.2075 59.846 53.2075 62.7981 49.9853 62.797C46.763 62.7958 46.763 59.846 46.763 59.846C46.763 59.846 46.763 59.846 46.763 59.846V49.4342C46.763 49.2003 46.6053 48.9958 46.3792 48.9362L41.2157 47.5764C40.9384 47.5033 40.6548 47.671 40.5851 47.9492L36.5161 64.1804C36.5159 64.1811 36.516 64.1809 36.5158 64.1815C36.5104 64.2035 35.7204 67.3612 32.4121 66.8558C28.6543 66.2816 29.4865 63.0373 29.5497 62.8096C29.5522 62.8005 29.5544 62.7924 29.5566 62.7832L38.4795 25.6239C38.5455 25.3492 38.8204 25.179 39.0957 25.2423L48.4121 27.3861Z" stroke="#111111" stroke-width="1.5" stroke-miterlimit="10"/>
<path d="M30.3101 23.2476L30.1048 23.969L30.1294 23.976L30.1544 23.9813L30.3101 23.2476ZM28.4242 30.7569L28.621 30.0332L28.5993 30.0273L28.5773 30.0227L28.4242 30.7569ZM31.6283 31.6281L32.3589 31.7976C32.45 31.4047 32.2141 31.0102 31.825 30.9044L31.6283 31.6281ZM28.6772 44.3544L29.4063 44.5306L29.4079 44.5238L28.6772 44.3544ZM28.9662 44.8357L28.7882 45.5644L28.7977 45.5665L28.9662 44.8357ZM27.3402 26.2794L28.0722 26.443L27.3402 26.2794ZM28.2274 31.4806L31.4315 32.3519L31.825 30.9044L28.621 30.0332L28.2274 31.4806ZM30.8976 31.4587L27.9466 44.1849L29.4079 44.5238L32.3589 31.7976L30.8976 31.4587ZM27.9482 44.1781C27.8023 44.7818 28.1638 45.4118 28.7882 45.5643L29.1441 44.1071C29.3451 44.1562 29.4493 44.3525 29.4062 44.5306L27.9482 44.1781ZM28.7977 45.5665L34.0766 46.7835L34.4136 45.3218L29.1346 44.1049L28.7977 45.5665ZM39.3785 24.539C37.9479 24.1681 35.7155 23.6611 33.8502 23.2487C32.9156 23.042 32.0697 22.8584 31.4575 22.7264C31.1513 22.6604 30.9035 22.6073 30.7322 22.5707C30.6466 22.5524 30.58 22.5382 30.5348 22.5286C30.5123 22.5238 30.495 22.5201 30.4834 22.5177C30.4776 22.5164 30.4732 22.5155 30.4702 22.5149C30.4688 22.5146 30.4676 22.5143 30.4669 22.5142C30.4665 22.5141 30.4662 22.514 30.466 22.514C30.4659 22.514 30.4658 22.5139 30.4658 22.5139C30.4657 22.5139 30.4657 22.5139 30.3101 23.2476C30.1544 23.9813 30.1544 23.9813 30.1545 23.9813C30.1545 23.9813 30.1546 23.9813 30.1547 23.9813C30.1548 23.9814 30.1551 23.9814 30.1555 23.9815C30.1562 23.9816 30.1573 23.9819 30.1587 23.9822C30.1616 23.9828 30.1659 23.9837 30.1716 23.9849C30.1831 23.9873 30.2001 23.991 30.2225 23.9957C30.2673 24.0053 30.3335 24.0194 30.4188 24.0376C30.5893 24.074 30.8362 24.1269 31.1414 24.1927C31.7518 24.3243 32.595 24.5074 33.5264 24.7133C35.3933 25.126 37.601 25.6277 39.002 25.991L39.3785 24.539ZM30.3101 23.2476C30.5153 22.5262 30.5147 22.526 30.5141 22.5259C30.5139 22.5258 30.5133 22.5256 30.5128 22.5255C30.512 22.5253 30.5111 22.525 30.5102 22.5248C30.5083 22.5243 30.5063 22.5237 30.5042 22.5231C30.4999 22.522 30.495 22.5207 30.4896 22.5193C30.4788 22.5165 30.4657 22.5134 30.4505 22.5099C30.4201 22.5031 30.3809 22.4952 30.3339 22.4877C30.2402 22.4728 30.1137 22.4591 29.9624 22.4587C29.6596 22.458 29.2507 22.5107 28.8106 22.7184C27.8978 23.1492 27.0488 24.1452 26.6083 26.1158L28.0722 26.443C28.4464 24.7687 29.0823 24.2488 29.4508 24.0749C29.6513 23.9803 29.832 23.9584 29.9588 23.9587C30.0222 23.9589 30.0705 23.9647 30.0978 23.969C30.1114 23.9712 30.1193 23.9729 30.1208 23.9733C30.1216 23.9734 30.1207 23.9732 30.1181 23.9726C30.1168 23.9722 30.115 23.9718 30.1128 23.9712C30.1117 23.9709 30.1105 23.9706 30.1092 23.9702C30.1085 23.97 30.1078 23.9698 30.1071 23.9696C30.1067 23.9695 30.1062 23.9693 30.106 23.9693C30.1054 23.9691 30.1048 23.969 30.3101 23.2476ZM26.6083 26.1158C26.1302 28.2546 26.3782 29.5997 26.9068 30.4405C27.1691 30.8579 27.4809 31.1171 27.7443 31.2734C27.8747 31.3508 27.9914 31.402 28.0825 31.4354C28.128 31.4521 28.1674 31.4644 28.1992 31.4733C28.2151 31.4778 28.2292 31.4814 28.2412 31.4843C28.2472 31.4858 28.2527 31.4871 28.2577 31.4882C28.2602 31.4888 28.2625 31.4893 28.2647 31.4898C28.2659 31.49 28.2669 31.4902 28.268 31.4905C28.2685 31.4906 28.2693 31.4907 28.2695 31.4908C28.2703 31.4909 28.271 31.4911 28.4242 30.7569C28.5773 30.0227 28.5781 30.0229 28.5788 30.023C28.579 30.0231 28.5797 30.0232 28.5802 30.0233C28.5811 30.0235 28.582 30.0237 28.5829 30.0239C28.5846 30.0243 28.5863 30.0246 28.5878 30.025C28.5909 30.0257 28.5935 30.0263 28.5958 30.0268C28.6003 30.0279 28.6033 30.0287 28.6048 30.0292C28.6079 30.03 28.6054 30.0294 28.5983 30.0268C28.5839 30.0216 28.5521 30.0086 28.5099 29.9836C28.4282 29.9351 28.2988 29.8365 28.1767 29.6422C27.9363 29.2598 27.6423 28.3662 28.0722 26.443L26.6083 26.1158Z" fill="#111111"/>
<path d="M62.245 61.046V37.9912M62.245 28.9538V32.1814" stroke="#111111" stroke-width="1.5" stroke-miterlimit="10" stroke-linecap="round"/>
</svg>
