<svg width="65" height="64" viewBox="0 0 65 64" fill="none" xmlns="http://www.w3.org/2000/svg">
<mask id="mask0" mask-type="alpha" maskUnits="userSpaceOnUse" x="0" y="0" width="65" height="64">
<rect x="1.21484" y="0.75" width="62.5" height="62.5" fill="#C4C4C4" stroke="#111111" stroke-width="1.5"/>
</mask>
<g mask="url(#mask0)">
<mask id="mask1" mask-type="alpha" maskUnits="userSpaceOnUse" x="7" y="7" width="51" height="50">
<rect x="8.40234" y="7.5" width="49" height="49" fill="#C4C4C4" stroke="#111111"/>
</mask>
<g mask="url(#mask1)">
<mask id="mask2" mask-type="alpha" maskUnits="userSpaceOnUse" x="3" y="2" width="61" height="60">
<rect x="3.15234" y="2" width="60" height="60" fill="#C4C4C4"/>
</mask>
<g mask="url(#mask2)">
<path d="M56.0664 49.7883C56.8602 48.4418 57.2816 46.9831 57.2915 45.585" stroke="#111111" stroke-width="1.3" stroke-linecap="round"/>
<path d="M47.6094 54.6171C49.4347 54.6179 51.5618 54.1858 53.4478 52.7319C53.7282 52.5155 53.9939 52.2891 54.2465 52.053" stroke="#111111" stroke-width="1.3" stroke-linecap="round"/>
<path d="M54.2888 44.3491C54.265 45.1396 54.0436 45.9473 53.6484 46.7099C53.3155 47.3536 52.8579 47.9653 52.2905 48.5082C51.878 48.9034 51.4057 49.2626 50.8825 49.5701C50.0109 50.0809 49.0892 50.3966 48.1855 50.527" stroke="#111111" stroke-width="1.3" stroke-linecap="round"/>
<path d="M17.4503 10C15.6455 10.1017 13.7447 10.7708 12.0662 12.0197C11.42 12.5002 10.8468 13.0373 10.3516 13.6121" stroke="#111111" stroke-width="1.3" stroke-linecap="round"/>
<path d="M16.3828 13.5822C17.4185 13.0648 18.5238 12.8475 19.5546 12.9672" stroke="#111111" stroke-width="1.3" stroke-linecap="round"/>
<path d="M8.24008 18.009C8.327 17.2325 8.54758 16.5043 8.8846 15.8672" stroke="#111111" stroke-width="1.3" stroke-linecap="round"/>
<path d="M10.9009 20.9866C10.7246 19.0489 11.7176 16.8677 13.6504 15.3909C13.775 15.2958 13.9013 15.2048 14.0292 15.1187" stroke="#111111" stroke-width="1.3" stroke-linecap="round"/>
<path fill-rule="evenodd" clip-rule="evenodd" d="M45.9605 29.0574C45.7604 31.3108 43.7719 32.9745 41.5193 32.7753C39.266 32.576 37.6014 30.5875 37.8015 28.3342C38.0007 26.0816 39.9892 24.417 42.2426 24.6163C44.4951 24.8164 46.1597 26.804 45.9605 29.0574Z" stroke="#111111" stroke-width="1.3" stroke-linecap="round"/>
<path fill-rule="evenodd" clip-rule="evenodd" d="M47.2924 20.305L28.8662 18.6723C28.7096 18.5985 28.5169 18.4452 28.4513 18.2992L22.3734 17.7605C22.2841 17.8925 22.0668 18.0106 21.8995 18.0541L20.4259 17.9237C18.1234 17.7195 16.0914 19.421 15.8872 21.7236L14.2981 39.6553C14.1398 41.4339 15.4543 43.0034 17.2329 43.1608L45.0489 45.6257C47.3515 45.8299 49.3834 44.1292 49.5876 41.8267L51.0931 24.8445C51.2973 22.5419 49.5958 20.5091 47.2924 20.305Z" stroke="#111111" stroke-width="1.3" stroke-linecap="round"/>
<path fill-rule="evenodd" clip-rule="evenodd" d="M32.6628 32.6185C32.4619 34.8825 34.1347 36.8801 36.3979 37.0801L45.8033 37.9141C48.0665 38.115 50.0649 36.4422 50.2658 34.1782L51.0989 24.7736C51.2998 22.5096 49.627 20.512 47.3638 20.3111L37.9584 19.478C35.6944 19.2771 33.6969 20.9499 33.4968 23.2131L32.6628 32.6185Z" stroke="#111111" stroke-width="1.3" stroke-linecap="round"/>
<path fill-rule="evenodd" clip-rule="evenodd" d="M28.9527 35.9621L18.5313 35.0388C18.4116 35.0281 18.3222 34.9215 18.3329 34.8018L19.462 22.0672C19.4719 21.9475 19.5785 21.8581 19.6982 21.8688L30.1204 22.7929C30.2393 22.8036 30.3287 22.9102 30.318 23.0299L29.1897 35.7637C29.1782 35.8834 29.0724 35.9728 28.9527 35.9621Z" stroke="#111111" stroke-width="1.3" stroke-linecap="round"/>
</g>
</g>
</g>
</svg>
