<svg width="90" height="90" viewBox="0 0 90 90" fill="none" xmlns="http://www.w3.org/2000/svg">
<path d="M40.1566 55.5968C38.8649 58.1674 40.4433 59.6983 41.3939 60.1425C43.6432 61.2728 45.3086 59.4936 45.8601 58.4628L49.695 50.8313L51.1815 47.5515C51.2348 47.4338 51.2243 47.2971 51.1536 47.1889L45.4293 38.4251C45.3195 38.257 45.3604 38.0324 45.5223 37.9137L51.481 33.5466C51.6572 33.4175 51.9059 33.4643 52.0231 33.6486L54.7413 37.9224C54.7786 37.9811 54.8313 38.0283 54.8938 38.0589L63.0126 42.0393L63.0182 42.0419C63.0968 42.0777 65.6045 43.1952 66.7454 40.8488C67.9525 38.3662 65.3884 37.0848 65.3629 37.0721L65.3615 37.0714L58.4643 33.6056C58.405 33.5758 58.355 33.5314 58.3185 33.476C56.8435 31.2352 54.9604 28.4319 53.1224 25.7898C51.0778 22.8507 45.0131 27.7518 39.6014 31.6731C35.296 34.7928 36.3456 37.9521 37.4955 39.2678L43.8517 47.7782C43.9374 47.8929 43.9515 48.0449 43.8872 48.1728L40.1566 55.5968Z" stroke="#111111" stroke-width="1.52081"/>
<path d="M57.0822 24.4371C54.9373 22.5794 54.7045 19.3346 56.5622 17.1896C58.42 15.0447 61.6648 14.8119 63.8097 16.6696L68.8239 22.0963L62.5283 19.704L60.3414 22.5914L63.1594 26.0119L65.3377 26.9201L65.2779 28.4755L62.9923 30.3671L57.0822 24.4371Z" stroke="#111111" stroke-width="1.52081" stroke-miterlimit="10" stroke-linejoin="round"/>
<ellipse cx="28.6116" cy="51.518" rx="9.66666" ry="9.55805" transform="rotate(26.6798 28.6116 51.518)" stroke="#111111" stroke-width="1.52081"/>
<ellipse cx="60.7497" cy="60.1314" rx="9.44944" ry="9.34082" transform="rotate(26.6798 60.7497 60.1314)" stroke="#111111" stroke-width="1.52081"/>
<path d="M46.3203 39.9794L59.7669 44.4406C60.0585 44.5373 60.1188 44.9232 59.8707 45.1043L48.545 53.3725M39.5999 42.9412L29.351 50.419C29.1107 50.5943 29.1579 50.9658 29.4345 51.0754L40.4594 55.447" stroke="#111111" stroke-width="1.52081"/>
<path d="M13 63.876H26.6423L35.7983 67.6299H49.8069L63.2661 76.6943H77" stroke="black" stroke-width="1.52081" stroke-linecap="round" stroke-linejoin="round"/>
<path d="M60.4169 61.3199L61.1806 41.4209" stroke="#111111" stroke-width="1.52081" stroke-linecap="round"/>
</svg>
