<svg width="65" height="64" viewBox="0 0 65 64" fill="none" xmlns="http://www.w3.org/2000/svg">
<g clip-path="url(#clip0)">
<path d="M49.6654 0H14.9C7.04524 0 0.677734 6.4471 0.677734 14.4V49.6C0.677734 57.5529 7.04524 64 14.9 64H49.6654C57.5201 64 63.8876 57.5529 63.8876 49.6V14.4C63.8876 6.4471 57.5201 0 49.6654 0Z" fill="#282828"/>
<path fill-rule="evenodd" clip-rule="evenodd" d="M26.3016 13.1467C35.9704 18.9888 42.4109 22.8375 45.6231 24.6927C50.4414 27.4755 51.7599 28.7489 51.7599 32.832C51.7599 35.5542 49.8345 37.7953 45.9838 39.5554L36.5495 44.7876L26.3016 39.1845L14.8997 18.9989C14.8146 15.7617 16.017 13.5041 18.5069 12.2261C20.9969 10.948 23.5951 11.2549 26.3016 13.1467Z" fill="white"/>
<path fill-rule="evenodd" clip-rule="evenodd" d="M14.9004 18.999C24.592 24.686 31.0439 28.4571 34.2561 30.3123C39.0744 33.0951 40.3456 35.3182 40.3456 39.1037C40.3456 41.6274 38.4797 43.8757 34.7478 45.8484L25.1622 51.1016L14.9004 45.3838V18.999Z" fill="#00ABF5"/>
<path fill-rule="evenodd" clip-rule="evenodd" d="M14.9004 33.0806C16.3389 34.0186 18.6057 35.334 21.7008 37.0267C26.3434 39.5657 28.3325 42.004 28.3325 45.3837C28.3325 47.6368 27.4881 49.4098 25.7993 50.7026C24.436 51.69 23.0698 52.1837 21.7008 52.1837C19.6473 52.1837 14.9004 51.1142 14.9004 45.3837C14.9004 41.5634 14.9004 37.4623 14.9004 33.0806Z" fill="#005DAA"/>
</g>
<defs>
<clipPath id="clip0">
<rect width="64" height="64" fill="white" transform="translate(0.5)"/>
</clipPath>
</defs>
</svg>
