<svg width="65" height="64" viewBox="0 0 65 64" fill="none" xmlns="http://www.w3.org/2000/svg">
<path d="M48.875 0H16.125C7.49555 0 0.5 6.99555 0.5 15.625V48.375C0.5 57.0044 7.49555 64 16.125 64H48.875C57.5044 64 64.5 57.0044 64.5 48.375V15.625C64.5 6.99555 57.5044 0 48.875 0Z" fill="#111111"/>
<path d="M24.4872 26.9776H27.9066C27.9066 26.9776 27.9108 31.036 27.9183 33.1988C27.9197 33.5725 27.9441 33.9518 28.0135 34.3185C28.1979 35.2928 28.7976 35.8963 29.7474 36.144C30.6343 36.3752 31.5263 36.3667 32.4065 36.1185C33.505 35.809 34.1244 35.0432 34.329 33.941C34.4102 33.5046 34.4444 33.0545 34.4473 32.61C34.4595 30.6666 34.4524 26.9777 34.4524 26.9777L37.8873 26.9572V39.2722H34.4589V37.1877C34.4589 37.1877 34.2628 37.442 34.2234 37.4953C33.2859 38.755 31.9673 39.2066 30.4724 39.2755C29.455 39.3222 28.4518 39.2373 27.4959 38.8518C26.0474 38.2677 25.2098 37.1537 24.7926 35.6793C24.5336 34.7629 24.4768 33.8235 24.4754 32.8785C24.4727 30.8147 24.4872 26.9776 24.4872 26.9776Z" fill="#F4F4F4"/>
<path d="M24.4751 39.2882L22.1648 35.9442C22.9696 34.6989 23.6346 32.9311 23.6346 31.0861C23.6346 25.7817 19.8404 22.8759 15.1496 22.8759C10.4816 22.8759 6.6875 25.7817 6.6875 31.0861C6.6875 36.4827 10.4816 39.2732 15.1496 39.2732C16.8742 39.2732 18.1706 38.9825 19.5273 38.2214L20.2838 39.2882H24.4751ZM15.1496 35.9291C12.2292 35.9291 9.86081 34.4302 9.86081 31.0861C9.86081 27.719 12.2292 26.243 15.1496 26.243C18.0699 26.243 20.4383 27.7652 20.4383 31.0861C20.4383 34.3379 18.0699 35.9291 15.1496 35.9291Z" fill="#F4F4F4"/>
<path d="M39.604 26.978H43.0388V39.2872H39.604V26.978Z" fill="#F4F4F4"/>
<path d="M39.604 22.8754H43.0388V26.1169H39.604V22.8754Z" fill="#F4F4F4"/>
<path d="M57.9646 26.9785H53.2621L48.1736 32.0817V22.8754H44.7568V39.2877H48.1917L48.1826 38.0466L48.1917 36.8054L50.64 34.3322L54.1209 39.2877H58.3122L53.119 31.8406L57.9646 26.9785Z" fill="#F4F4F4"/>
<path d="M39.604 22.8754H43.0388V26.1169H39.604V22.8754Z" fill="#F4F4F4"/>
</svg>
