<svg width="90" height="90" viewBox="0 0 90 90" fill="none" xmlns="http://www.w3.org/2000/svg">
<path d="M58.2897 61.8137C58.2897 61.8137 60.1087 19.912 60.3083 17.948C60.5079 15.9839 57.7719 13.3141 57.7719 13.3141" stroke="#111111" stroke-width="1.5" stroke-miterlimit="10" stroke-linecap="round"/>
<path d="M52.3557 60.8971C52.3557 60.8971 64.9577 20.8939 65.6588 19.0485C66.3599 17.203 64.4082 13.9161 64.4082 13.9161" stroke="#111111" stroke-width="1.5" stroke-miterlimit="10" stroke-linecap="round"/>
<path d="M19.1833 67.9532L32.1063 37.4541" stroke="#111111" stroke-width="1.5" stroke-miterlimit="10" stroke-linecap="round"/>
<path d="M33.7404 41.5544L28.1437 39.1537" stroke="#111111" stroke-width="1.5" stroke-miterlimit="10" stroke-linecap="round"/>
<path d="M50.5026 76.1075C47.458 76.6004 44.5903 74.5319 44.0973 71.4872C43.6044 68.4426 45.6729 65.5749 48.7175 65.0819C51.7621 64.589 54.6299 66.6575 55.1228 69.7021C55.6158 72.7467 53.5472 75.6145 50.5026 76.1075Z" stroke="#111111" stroke-width="1.5" stroke-miterlimit="10"/>
<path d="M58.6838 35.0833L46.6604 32.2023C44.5749 31.7026 42.4305 32.7658 41.5657 34.7282L33.5562 52.9035C32.9835 54.203 33.0674 55.6981 33.7818 56.9254L35.8876 60.543L21.2005 66.8226C21.2005 66.8226 17.8229 67.8402 18.5691 70.6083C19.3152 73.3765 22.5768 72.3535 22.5768 72.3535L39.48 65.8625L42.8605 64.423C45.0869 63.4748 46.1432 60.9177 45.2349 58.6747L44.2945 56.3523C43.9318 55.4566 43.8714 54.4669 44.1225 53.5337L46.9562 43.0034C47.5768 40.697 49.9117 39.2956 52.2389 39.8326L59.1394 41.4247" stroke="black" stroke-width="1.5" stroke-linejoin="round"/>
</svg>
