<svg width="90" height="90" viewBox="0 0 90 90" fill="none" xmlns="http://www.w3.org/2000/svg">
<path d="M32.6978 57.9359L29.5779 48.3049C29.071 46.8163 29.198 45.1855 29.9337 43.7966L39.317 32.6958L23.9734 32.0183C23.9734 32.0183 19.4902 32.0622 19.7012 28.5886C20.031 25.1358 24.4992 25.7826 24.4992 25.7826L46.6094 26.9654L53.7254 29.011L68.6522 39.4183C68.6522 39.4183 71.6852 41.7259 69.2732 44.4129C67.2941 46.0252 64.2514 44.3342 64.2514 44.3342L52.3721 36.0986L44.2212 43.5854L49.3956 44.9393L52.5636 48.8465" stroke="#111111" stroke-width="1.5" stroke-linecap="round" stroke-linejoin="round"/>
<path d="M70.2449 55.4993C73.2191 54.2307 74.1135 50.72 72.7104 47.4306C72.1208 46.0483 71.3904 44.9665 70.2449 44.2606" stroke="#111111" stroke-width="1.5" stroke-miterlimit="10" stroke-linecap="round"/>
<path d="M70.2337 55.5266C70.2337 55.5266 56.1577 60.3369 47.3986 64.0697C38.5801 67.828 25.2748 74.703 25.2748 74.703C22.3006 75.9716 18.7521 74.3334 17.3491 71.044C15.9461 67.7546 17.2198 64.0596 20.194 62.791C20.194 62.791 34.2727 58.1184 42.9783 54.34C51.1792 50.7805 63.4844 44.1637 63.4844 44.1637" stroke="#111111" stroke-width="1.5" stroke-miterlimit="10" stroke-linecap="round"/>
<path d="M39.6636 54.4343L38.0623 49.3292L43.6506 49.0155L46.7046 51.8697" stroke="#111111" stroke-width="1.5" stroke-linecap="round" stroke-linejoin="round"/>
<path d="M53.0843 25.2496C49.7017 25.2496 46.9595 22.5074 46.9595 19.1248C46.9595 15.7422 49.7017 13 53.0843 13C56.4669 13 59.2091 15.7422 59.2091 19.1248C59.2091 22.5074 56.4669 25.2496 53.0843 25.2496Z" stroke="#111111" stroke-width="1.5" stroke-miterlimit="10"/>
</svg>
