<svg width="90" height="90" viewBox="0 0 90 90" fill="none" xmlns="http://www.w3.org/2000/svg">
<path d="M54.0398 25.7194C51.0395 24.9154 49.2589 21.8314 50.0629 18.8311C50.8668 15.8308 53.9508 14.0502 56.9511 14.8542C59.9515 15.6581 61.732 18.7421 60.9281 21.7424C60.1241 24.7428 57.0401 26.5233 54.0398 25.7194Z" stroke="#111111" stroke-width="1.5" stroke-miterlimit="10"/>
<path d="M20.1756 61.0925C20.1756 61.0925 62.6432 75.5591 77.3973 69.7179C77.7353 69.5853 77.4597 69.1899 77.017 69.1752C73.8784 69.0629 66.3318 68.661 60.0509 67.2954C41.5746 63.2812 15.7635 55.6434 15.2953 56.0192C13.8878 57.8422 13.8994 58.9362 20.1756 61.0925Z" stroke="#111111" stroke-width="1.5" stroke-miterlimit="10"/>
<path d="M47.5642 64.1212L50.308 56.804C50.6013 56.0219 50.3776 55.14 49.7472 54.5921L47.9212 53.0053C47.0066 52.2105 45.601 52.4051 44.9367 53.4183L39.3608 61.9231M31.7523 59.8844L36.9164 51.7075L42.09 43.8508C42.2078 43.6719 42.296 43.4753 42.3515 43.2685L44.132 36.6236C44.4734 35.3494 43.5094 34.0995 42.1903 34.106L37.6182 34.1285C37.3784 34.1296 28.4267 31.7399 27.7889 31.5695C27.763 31.5626 27.741 31.5573 27.715 31.5504C27.3716 31.46 24.843 30.6928 25.6648 27.9095C26.402 25.4122 29.1038 26.0996 29.2058 26.1266C29.2091 26.1274 29.2104 26.1278 29.2137 26.1287L37.8953 28.4549C38.0643 28.5002 38.2385 28.5231 38.4135 28.5231L48.2973 28.5205C48.4478 28.5205 48.5978 28.5374 48.7445 28.571L55.8906 30.2084C56.0705 30.2496 56.2397 30.3133 56.4016 30.402C58.0104 31.2843 67.1721 36.3077 67.2058 36.3086C67.262 36.3101 74.9644 36.3087 75.4745 36.3086C75.493 36.3086 75.509 36.3088 75.5274 36.3098C75.8198 36.3259 78.4406 36.5427 78.4407 39.1337C78.4407 41.8777 75.5012 41.8778 75.501 41.8778C75.501 41.8778 75.501 41.8778 75.501 41.8778L67.0112 41.8778C66.6914 41.8778 66.3592 41.8974 66.0572 41.792C64.7733 41.3436 61.2717 39.4506 58.927 38.1516C57.781 37.5166 56.3375 38.1226 55.9984 39.3881L53.9163 47.1587C53.7376 47.8258 53.9156 48.5379 54.3873 49.0423L56.8888 51.7178C58.5217 53.3571 57.5964 55.6249 57.3874 56.4664L54.2536 65.9136" stroke="#111111" stroke-width="1.5" stroke-miterlimit="10" stroke-linejoin="round"/>
<path d="M21.7421 61.6727C21.6555 61.732 21.5922 61.8187 21.5629 61.9193C21.352 62.636 20.3254 65.72 17.9494 67.0705C17.5799 67.2803 17.6567 67.8289 18.0714 67.9165C20.6455 68.4553 26.1468 68.9016 27.6253 63.3835" stroke="#111111" stroke-width="1.5" stroke-miterlimit="10"/>
</svg>
