<svg width="90" height="90" viewBox="0 0 90 90" fill="none" xmlns="http://www.w3.org/2000/svg">
<mask id="mask0_408_46067" style="mask-type:alpha" maskUnits="userSpaceOnUse" x="0" y="0" width="90" height="90">
<rect width="90" height="90" rx="8" fill="#C4C4C4"/>
</mask>
<g mask="url(#mask0_408_46067)">
<path d="M73.1802 66.2966H74.2718C75.1814 66.2598 77.0007 65.0387 77.0007 60.4483C77.0007 55.858 77.0007 54.0483 77.0007 53.7173C76.6733 51.8782 75.0795 48.1118 71.3245 47.7587C67.5694 47.4056 63.0647 47.2069 61.6093 47.0966L53.3132 32.2C52.6582 31.3541 52.0469 31.2069 49.6018 31.2069C47.1566 31.2069 34.1012 31.2069 27.8791 31.2069C27.1514 31.3173 25.4121 31.869 24.2769 33.1931C22.8578 34.8483 15.1075 45.2207 14.9983 47.3173C14.911 48.9945 14.9619 55.0782 14.9983 57.9104C14.3798 57.9104 13.1426 58.2414 13.1426 59.5656C13.1426 61.2207 11.9419 66.2966 16.5266 66.2966H19.1464M59.6444 66.2966H33.0096" stroke="#111111" stroke-width="1.5"/>
<path d="M70.3964 47.979V52.2871C70.2863 53.2786 70.6826 55.2617 73.1482 55.2617C75.6138 55.2617 76.7439 55.2617 77.0007 55.2617" stroke="#111111" stroke-width="1.5"/>
<circle r="6.62069" transform="matrix(-1 0 0 1 66.4076 65.8551)" stroke="#111111" stroke-width="1.5"/>
<circle r="6.62069" transform="matrix(-1 0 0 1 26.02 65.8551)" stroke="#111111" stroke-width="1.5"/>
<path d="M51.1015 36.419C50.7472 35.7894 50.0809 35.3998 49.3585 35.3998H44.1304C43.0258 35.3998 42.1304 36.2952 42.1304 37.3998V45.5377C42.1304 46.6423 43.0258 47.5377 44.1304 47.5377H53.9377C55.4675 47.5377 56.4309 45.8902 55.6807 44.557L51.1015 36.419Z" stroke="#111111" stroke-width="1.5"/>
<path d="M27.1907 36.1856C27.5691 35.6903 28.1567 35.3998 28.78 35.3998H35.4964C36.601 35.3998 37.4964 36.2952 37.4964 37.3998V45.5377C37.4964 46.6423 36.601 47.5377 35.4964 47.5377H22.5622C20.9058 47.5377 19.9674 45.6396 20.973 44.3235L27.1907 36.1856Z" stroke="#111111" stroke-width="1.5"/>
<line x1="0.75" y1="-0.75" x2="5.65" y2="-0.75" transform="matrix(-1 0 0 1 49.8557 52.3929)" stroke="#111111" stroke-width="1.5" stroke-linecap="round"/>
<line x1="0.75" y1="-0.75" x2="5.65" y2="-0.75" transform="matrix(-1 0 0 1 30.6555 52.3929)" stroke="#111111" stroke-width="1.5" stroke-linecap="round"/>
<line y1="-0.75" x2="5.19639" y2="-0.75" transform="matrix(2.8763e-08 1 1 -6.64286e-08 50.2312 26.176)" stroke="#111111" stroke-width="1.5"/>
<line y1="-0.75" x2="5.19639" y2="-0.75" transform="matrix(2.8763e-08 1 1 -6.64286e-08 30.485 26.176)" stroke="#111111" stroke-width="1.5"/>
<path d="M51.0285 26.793H27.6522C26.1957 26.5439 23.3483 25.3413 23.6105 22.5233C23.9382 19.0007 30.9292 15.9052 40.8696 18.467C48.8219 20.5165 52.6671 26.793 51.0285 26.793Z" stroke="#111111" stroke-width="1.5"/>
</g>
</svg>
