<svg width="65" height="64" viewBox="0 0 65 64" fill="none" xmlns="http://www.w3.org/2000/svg">
<mask id="mask0" mask-type="alpha" maskUnits="userSpaceOnUse" x="0" y="0" width="65" height="64">
<rect x="1.58984" y="0.75" width="62.5" height="62.5" fill="#C4C4C4" stroke="#111111" stroke-width="1.5"/>
</mask>
<g mask="url(#mask0)">
<mask id="mask1" mask-type="alpha" maskUnits="userSpaceOnUse" x="5" y="10" width="59" height="46">
<rect x="5.48242" y="10.6667" width="57.6" height="44.8" fill="#C4C4C4"/>
</mask>
<g mask="url(#mask1)">
<path d="M61.62 15.0606C59.4093 15.0606 57.6173 13.5715 57.6173 11.7334C57.6173 13.5715 55.8237 15.0606 53.613 15.0606C51.4023 15.0606 49.6103 13.5715 49.6103 11.7334C49.6103 13.5715 47.8183 15.0606 45.6061 15.0606C43.3954 15.0606 41.6033 13.5715 41.6033 11.7334C41.6033 13.5715 39.8113 15.0606 37.6006 15.0606C35.3899 15.0606 33.5964 13.5715 33.5964 11.7334C33.5964 13.5715 31.8043 15.0606 29.5936 15.0606C27.3829 15.0606 25.5894 13.5715 25.5894 11.7334C25.5894 13.5715 23.7974 15.0606 21.5867 15.0606C19.3759 15.0606 17.5839 13.5715 17.5839 11.7334C17.5839 13.5715 15.7919 15.0606 13.5812 15.0606C11.369 15.0606 9.57696 13.5715 9.57696 11.7334C9.57696 13.5715 7.78493 15.0606 5.57422 15.0606" stroke="#111111" stroke-width="1.3" stroke-linecap="square" stroke-linejoin="bevel"/>
<path fill-rule="evenodd" clip-rule="evenodd" d="M47.1291 32.5718C47.3858 34.9712 45.6492 37.1235 43.2508 37.3809C40.8517 37.6385 38.6985 35.902 38.4418 33.5027C38.1844 31.1043 39.9208 28.9512 42.32 28.6936C44.7185 28.437 46.8715 30.1727 47.1291 32.5718Z" stroke="#111111" stroke-width="1.32102" stroke-linecap="round"/>
<path fill-rule="evenodd" clip-rule="evenodd" d="M46.7122 23.1375L27.093 25.2404C26.9138 25.1956 26.6805 25.075 26.5816 24.9358L20.1102 25.6292C20.044 25.7859 19.841 25.9544 19.675 26.0345L18.1061 26.2028C15.6544 26.4654 13.88 28.6662 14.1427 31.1179L16.1888 50.2107C16.3911 52.1046 18.0912 53.4751 19.9849 53.2719L49.602 50.0977C52.0537 49.8351 53.8282 47.6352 53.5656 45.1835L51.6283 27.1016C51.3657 24.6499 49.1648 22.8747 46.7122 23.1375Z" stroke="#111111" stroke-width="1.32102" stroke-linecap="round"/>
<path fill-rule="evenodd" clip-rule="evenodd" d="M33.9495 39.0486C34.2075 41.4593 36.3712 43.2035 38.7808 42.9448L48.7953 41.872C51.2051 41.6141 52.9502 39.4503 52.6921 37.0396L51.6186 27.0262C51.3606 24.6155 49.1969 22.8713 46.7871 23.1292L36.7728 24.2028C34.3621 24.4609 32.6179 26.6245 32.8767 29.0341L33.9495 39.0486Z" stroke="#111111" stroke-width="1.32102" stroke-linecap="round"/>
<path fill-rule="evenodd" clip-rule="evenodd" d="M30.7594 43.3148L19.6633 44.5042C19.5358 44.5178 19.4203 44.4248 19.4067 44.2973L17.9541 30.738C17.9397 30.6107 18.0327 30.4951 18.1602 30.4815L29.2574 29.2928C29.384 29.2793 29.4996 29.3724 29.5132 29.4999L30.9664 43.0582C30.9791 43.1858 30.8869 43.3012 30.7594 43.3148Z" stroke="#111111" stroke-width="1.32102" stroke-linecap="round"/>
</g>
</g>
</svg>
